# xmcd CD database file
#
# Track frame offsets:
#	150
#	18960
#	37497
#	55670
#	73085
#	90677
#	113187
#	133077
#	154200
#	174745
#	192772
#	211567
#
# Disc length: 3057 seconds
#
# Revision: 0
# Processed by: cddbd v1.5PL3 Copyright (c) Steve Scherf et al.
# Submitted via: CDex 1.51
#
DISCID=a70bef0c
DTITLE=Vinnie Kay - Where Do We Go From Here
DYEAR=1995
DGENRE=Hard Rock
TTITLE0=Where Do We Go From Here
TTITLE1=How Much Love
TTITLE2=Goodbye Lorraine
TTITLE3=Always
TTITLE4=When The Love Is Over
TTITLE5=Losin' The Game
TTITLE6=Here To Stay
TTITLE7=One In A Million
TTITLE8=Someday,Someway
TTITLE9=Waiting For This Time
TTITLE10=After The Love Is Gone
TTITLE11=Children
EXTD=YEAR: 1995
EXTT0=
EXTT1=
EXTT2=
EXTT3=
EXTT4=
EXTT5=
EXTT6=
EXTT7=
EXTT8=
EXTT9=
EXTT10=
EXTT11=
PLAYORDER=
